<?xml version="1.0" standalone="no"?>
<svg xmlns:xlink="http://www.w3.org/1999/xlink" id="wave" style="transform:rotate(180deg); transition: 0.3s" viewBox="0 0 1440 490" version="1.1" xmlns="http://www.w3.org/2000/svg"><defs><linearGradient id="sw-gradient-0" x1="0" x2="0" y1="1" y2="0"><stop stop-color="rgba(175.301, 62, 243, 1)" offset="0%"/><stop stop-color="rgba(11, 97.958, 255, 1)" offset="100%"/></linearGradient></defs><path style="transform:translate(0, 0px); opacity:1" fill="url(#sw-gradient-0)" d="M0,245L48,220.5C96,196,192,147,288,179.7C384,212,480,327,576,375.7C672,425,768,408,864,400.2C960,392,1056,392,1152,367.5C1248,343,1344,294,1440,302.2C1536,310,1632,376,1728,383.8C1824,392,1920,343,2016,343C2112,343,2208,392,2304,416.5C2400,441,2496,441,2592,432.8C2688,425,2784,408,2880,351.2C2976,294,3072,196,3168,204.2C3264,212,3360,327,3456,326.7C3552,327,3648,212,3744,147C3840,82,3936,65,4032,98C4128,131,4224,212,4320,277.7C4416,343,4512,392,4608,367.5C4704,343,4800,245,4896,171.5C4992,98,5088,49,5184,32.7C5280,16,5376,33,5472,81.7C5568,131,5664,212,5760,245C5856,278,5952,261,6048,212.3C6144,163,6240,82,6336,89.8C6432,98,6528,196,6624,212.3C6720,229,6816,163,6864,130.7L6912,98L6912,490L6864,490C6816,490,6720,490,6624,490C6528,490,6432,490,6336,490C6240,490,6144,490,6048,490C5952,490,5856,490,5760,490C5664,490,5568,490,5472,490C5376,490,5280,490,5184,490C5088,490,4992,490,4896,490C4800,490,4704,490,4608,490C4512,490,4416,490,4320,490C4224,490,4128,490,4032,490C3936,490,3840,490,3744,490C3648,490,3552,490,3456,490C3360,490,3264,490,3168,490C3072,490,2976,490,2880,490C2784,490,2688,490,2592,490C2496,490,2400,490,2304,490C2208,490,2112,490,2016,490C1920,490,1824,490,1728,490C1632,490,1536,490,1440,490C1344,490,1248,490,1152,490C1056,490,960,490,864,490C768,490,672,490,576,490C480,490,384,490,288,490C192,490,96,490,48,490L0,490Z"/><defs><linearGradient id="sw-gradient-1" x1="0" x2="0" y1="1" y2="0"><stop stop-color="rgba(62, 144.9, 243, 1)" offset="0%"/><stop stop-color="rgba(255, 179, 11, 1)" offset="100%"/></linearGradient></defs><path style="transform:translate(0, 50px); opacity:0.9" fill="url(#sw-gradient-1)" d="M0,196L48,212.3C96,229,192,261,288,302.2C384,343,480,392,576,383.8C672,376,768,310,864,310.3C960,310,1056,376,1152,367.5C1248,359,1344,278,1440,220.5C1536,163,1632,131,1728,163.3C1824,196,1920,294,2016,302.2C2112,310,2208,229,2304,171.5C2400,114,2496,82,2592,130.7C2688,180,2784,310,2880,334.8C2976,359,3072,278,3168,220.5C3264,163,3360,131,3456,163.3C3552,196,3648,294,3744,318.5C3840,343,3936,294,4032,261.3C4128,229,4224,212,4320,196C4416,180,4512,163,4608,187.8C4704,212,4800,278,4896,294C4992,310,5088,278,5184,245C5280,212,5376,180,5472,171.5C5568,163,5664,180,5760,220.5C5856,261,5952,327,6048,359.3C6144,392,6240,392,6336,351.2C6432,310,6528,229,6624,236.8C6720,245,6816,343,6864,392L6912,441L6912,490L6864,490C6816,490,6720,490,6624,490C6528,490,6432,490,6336,490C6240,490,6144,490,6048,490C5952,490,5856,490,5760,490C5664,490,5568,490,5472,490C5376,490,5280,490,5184,490C5088,490,4992,490,4896,490C4800,490,4704,490,4608,490C4512,490,4416,490,4320,490C4224,490,4128,490,4032,490C3936,490,3840,490,3744,490C3648,490,3552,490,3456,490C3360,490,3264,490,3168,490C3072,490,2976,490,2880,490C2784,490,2688,490,2592,490C2496,490,2400,490,2304,490C2208,490,2112,490,2016,490C1920,490,1824,490,1728,490C1632,490,1536,490,1440,490C1344,490,1248,490,1152,490C1056,490,960,490,864,490C768,490,672,490,576,490C480,490,384,490,288,490C192,490,96,490,48,490L0,490Z"/></svg>