<?xml version="1.0" standalone="no"?>
<svg xmlns:xlink="http://www.w3.org/1999/xlink" id="wave" style="transform:rotate(0deg); transition: 0.3s" viewBox="0 0 1440 490" version="1.1" xmlns="http://www.w3.org/2000/svg"><defs><linearGradient id="sw-gradient-0" x1="0" x2="0" y1="1" y2="0"><stop stop-color="rgba(175.301, 62, 243, 1)" offset="0%"/><stop stop-color="rgba(11, 97.958, 255, 1)" offset="100%"/></linearGradient></defs><path style="transform:translate(0, 0px); opacity:1" fill="url(#sw-gradient-0)" d="M0,245L34.3,220.5C68.6,196,137,147,206,179.7C274.3,212,343,327,411,375.7C480,425,549,408,617,400.2C685.7,392,754,392,823,367.5C891.4,343,960,294,1029,302.2C1097.1,310,1166,376,1234,383.8C1302.9,392,1371,343,1440,343C1508.6,343,1577,392,1646,416.5C1714.3,441,1783,441,1851,432.8C1920,425,1989,408,2057,351.2C2125.7,294,2194,196,2263,204.2C2331.4,212,2400,327,2469,326.7C2537.1,327,2606,212,2674,147C2742.9,82,2811,65,2880,98C2948.6,131,3017,212,3086,277.7C3154.3,343,3223,392,3291,367.5C3360,343,3429,245,3497,171.5C3565.7,98,3634,49,3703,32.7C3771.4,16,3840,33,3909,81.7C3977.1,131,4046,212,4114,245C4182.9,278,4251,261,4320,212.3C4388.6,163,4457,82,4526,89.8C4594.3,98,4663,196,4731,212.3C4800,229,4869,163,4903,130.7L4937.1,98L4937.1,490L4902.9,490C4868.6,490,4800,490,4731,490C4662.9,490,4594,490,4526,490C4457.1,490,4389,490,4320,490C4251.4,490,4183,490,4114,490C4045.7,490,3977,490,3909,490C3840,490,3771,490,3703,490C3634.3,490,3566,490,3497,490C3428.6,490,3360,490,3291,490C3222.9,490,3154,490,3086,490C3017.1,490,2949,490,2880,490C2811.4,490,2743,490,2674,490C2605.7,490,2537,490,2469,490C2400,490,2331,490,2263,490C2194.3,490,2126,490,2057,490C1988.6,490,1920,490,1851,490C1782.9,490,1714,490,1646,490C1577.1,490,1509,490,1440,490C1371.4,490,1303,490,1234,490C1165.7,490,1097,490,1029,490C960,490,891,490,823,490C754.3,490,686,490,617,490C548.6,490,480,490,411,490C342.9,490,274,490,206,490C137.1,490,69,490,34,490L0,490Z"/><defs><linearGradient id="sw-gradient-1" x1="0" x2="0" y1="1" y2="0"><stop stop-color="rgba(62, 144.9, 243, 1)" offset="0%"/><stop stop-color="rgba(255, 179, 11, 1)" offset="100%"/></linearGradient></defs><path style="transform:translate(0, 50px); opacity:0.9" fill="url(#sw-gradient-1)" d="M0,196L34.3,212.3C68.6,229,137,261,206,302.2C274.3,343,343,392,411,383.8C480,376,549,310,617,310.3C685.7,310,754,376,823,367.5C891.4,359,960,278,1029,220.5C1097.1,163,1166,131,1234,163.3C1302.9,196,1371,294,1440,302.2C1508.6,310,1577,229,1646,171.5C1714.3,114,1783,82,1851,130.7C1920,180,1989,310,2057,334.8C2125.7,359,2194,278,2263,220.5C2331.4,163,2400,131,2469,163.3C2537.1,196,2606,294,2674,318.5C2742.9,343,2811,294,2880,261.3C2948.6,229,3017,212,3086,196C3154.3,180,3223,163,3291,187.8C3360,212,3429,278,3497,294C3565.7,310,3634,278,3703,245C3771.4,212,3840,180,3909,171.5C3977.1,163,4046,180,4114,220.5C4182.9,261,4251,327,4320,359.3C4388.6,392,4457,392,4526,351.2C4594.3,310,4663,229,4731,236.8C4800,245,4869,343,4903,392L4937.1,441L4937.1,490L4902.9,490C4868.6,490,4800,490,4731,490C4662.9,490,4594,490,4526,490C4457.1,490,4389,490,4320,490C4251.4,490,4183,490,4114,490C4045.7,490,3977,490,3909,490C3840,490,3771,490,3703,490C3634.3,490,3566,490,3497,490C3428.6,490,3360,490,3291,490C3222.9,490,3154,490,3086,490C3017.1,490,2949,490,2880,490C2811.4,490,2743,490,2674,490C2605.7,490,2537,490,2469,490C2400,490,2331,490,2263,490C2194.3,490,2126,490,2057,490C1988.6,490,1920,490,1851,490C1782.9,490,1714,490,1646,490C1577.1,490,1509,490,1440,490C1371.4,490,1303,490,1234,490C1165.7,490,1097,490,1029,490C960,490,891,490,823,490C754.3,490,686,490,617,490C548.6,490,480,490,411,490C342.9,490,274,490,206,490C137.1,490,69,490,34,490L0,490Z"/></svg>